<mxfile host="Electron" modified="2024-02-28T08:15:00.656Z" agent="Mozilla/5.0 (Windows NT 10.0; Win64; x64) AppleWebKit/537.36 (KHTML, like Gecko) draw.io/23.1.5 Chrome/120.0.6099.109 Electron/28.1.0 Safari/537.36" etag="oGv0Dll58wtJ4FF5PmLR" version="23.1.5" type="device">
  <diagram name="Страница — 1" id="f5qaqixOcX6vG_OhwR0j">
    <mxGraphModel dx="1588" dy="1022" grid="1" gridSize="10" guides="1" tooltips="1" connect="1" arrows="1" fold="1" page="1" pageScale="1" pageWidth="649" pageHeight="1011" math="0" shadow="0">
      <root>
        <mxCell id="0" />
        <mxCell id="1" parent="0" />
        <mxCell id="FgayyWrYOT7IGE3TPor_-6" style="edgeStyle=orthogonalEdgeStyle;rounded=0;orthogonalLoop=1;jettySize=auto;html=1;exitX=0.5;exitY=0.5;exitDx=0;exitDy=20;exitPerimeter=0;entryX=0.5;entryY=0;entryDx=0;entryDy=0;endArrow=none;endFill=0;" edge="1" parent="1" source="FgayyWrYOT7IGE3TPor_-2" target="FgayyWrYOT7IGE3TPor_-4">
          <mxGeometry relative="1" as="geometry" />
        </mxCell>
        <mxCell id="FgayyWrYOT7IGE3TPor_-2" value="Начало" style="html=1;dashed=0;whiteSpace=wrap;shape=mxgraph.dfd.start;fontFamily=Times New Roman;fontSize=14;" vertex="1" parent="1">
          <mxGeometry width="120" height="40" as="geometry" />
        </mxCell>
        <mxCell id="FgayyWrYOT7IGE3TPor_-9" style="edgeStyle=orthogonalEdgeStyle;rounded=0;orthogonalLoop=1;jettySize=auto;html=1;exitX=1;exitY=0.5;exitDx=0;exitDy=0;entryX=0;entryY=0.5;entryDx=0;entryDy=0;endArrow=none;endFill=0;" edge="1" parent="1" source="FgayyWrYOT7IGE3TPor_-3" target="FgayyWrYOT7IGE3TPor_-8">
          <mxGeometry relative="1" as="geometry" />
        </mxCell>
        <mxCell id="FgayyWrYOT7IGE3TPor_-10" value="Да" style="edgeLabel;html=1;align=center;verticalAlign=middle;resizable=0;points=[];fontFamily=Times New Roman;fontSize=15;" vertex="1" connectable="0" parent="FgayyWrYOT7IGE3TPor_-9">
          <mxGeometry x="0.1167" relative="1" as="geometry">
            <mxPoint x="-2" y="-20" as="offset" />
          </mxGeometry>
        </mxCell>
        <mxCell id="FgayyWrYOT7IGE3TPor_-14" style="edgeStyle=orthogonalEdgeStyle;rounded=0;orthogonalLoop=1;jettySize=auto;html=1;exitX=0.5;exitY=1;exitDx=0;exitDy=0;entryX=0.5;entryY=0;entryDx=0;entryDy=0;endArrow=none;endFill=0;" edge="1" parent="1" source="FgayyWrYOT7IGE3TPor_-3" target="FgayyWrYOT7IGE3TPor_-13">
          <mxGeometry relative="1" as="geometry" />
        </mxCell>
        <mxCell id="FgayyWrYOT7IGE3TPor_-15" value="Нет" style="edgeLabel;html=1;align=center;verticalAlign=middle;resizable=0;points=[];fontFamily=Times New Roman;fontSize=14;" vertex="1" connectable="0" parent="FgayyWrYOT7IGE3TPor_-14">
          <mxGeometry x="-0.058" y="1" relative="1" as="geometry">
            <mxPoint x="19" as="offset" />
          </mxGeometry>
        </mxCell>
        <mxCell id="FgayyWrYOT7IGE3TPor_-3" value="Ответ уже &lt;br style=&quot;font-size: 14px;&quot;&gt;выведен" style="rhombus;whiteSpace=wrap;html=1;fontFamily=Times New Roman;fontSize=14;" vertex="1" parent="1">
          <mxGeometry y="200" width="120" height="80" as="geometry" />
        </mxCell>
        <mxCell id="FgayyWrYOT7IGE3TPor_-5" style="edgeStyle=orthogonalEdgeStyle;rounded=0;orthogonalLoop=1;jettySize=auto;html=1;exitX=0.5;exitY=1;exitDx=0;exitDy=0;entryX=0.5;entryY=0;entryDx=0;entryDy=0;endArrow=none;endFill=0;" edge="1" parent="1" source="FgayyWrYOT7IGE3TPor_-4" target="FgayyWrYOT7IGE3TPor_-3">
          <mxGeometry relative="1" as="geometry" />
        </mxCell>
        <mxCell id="FgayyWrYOT7IGE3TPor_-4" value="q = 0" style="rounded=0;whiteSpace=wrap;html=1;fontFamily=Times New Roman;fontSize=14;" vertex="1" parent="1">
          <mxGeometry y="80" width="120" height="80" as="geometry" />
        </mxCell>
        <mxCell id="FgayyWrYOT7IGE3TPor_-8" value="Вывод во вспывающее окно сообщения о том, что ответ уже вычислен" style="rounded=0;whiteSpace=wrap;html=1;fontFamily=Times New Roman;fontSize=13;" vertex="1" parent="1">
          <mxGeometry x="160" y="200" width="120" height="80" as="geometry" />
        </mxCell>
        <mxCell id="FgayyWrYOT7IGE3TPor_-11" value="Конец" style="html=1;dashed=0;whiteSpace=wrap;shape=mxgraph.dfd.start;fontFamily=Times New Roman;fontSize=14;" vertex="1" parent="1">
          <mxGeometry y="700" width="120" height="40" as="geometry" />
        </mxCell>
        <mxCell id="FgayyWrYOT7IGE3TPor_-27" style="edgeStyle=orthogonalEdgeStyle;rounded=0;orthogonalLoop=1;jettySize=auto;html=1;exitX=1;exitY=0.5;exitDx=0;exitDy=0;endArrow=none;endFill=0;fontFamily=Times New Roman;fontSize=14;" edge="1" parent="1" source="FgayyWrYOT7IGE3TPor_-13" target="FgayyWrYOT7IGE3TPor_-24">
          <mxGeometry relative="1" as="geometry" />
        </mxCell>
        <mxCell id="FgayyWrYOT7IGE3TPor_-40" value="Да" style="edgeLabel;html=1;align=center;verticalAlign=middle;resizable=0;points=[];fontFamily=Times New Roman;fontSize=14;" vertex="1" connectable="0" parent="FgayyWrYOT7IGE3TPor_-27">
          <mxGeometry x="-0.1556" y="-2" relative="1" as="geometry">
            <mxPoint x="3" y="-22" as="offset" />
          </mxGeometry>
        </mxCell>
        <mxCell id="FgayyWrYOT7IGE3TPor_-30" style="edgeStyle=orthogonalEdgeStyle;rounded=0;orthogonalLoop=1;jettySize=auto;html=1;exitX=0.5;exitY=1;exitDx=0;exitDy=0;entryX=0.5;entryY=0;entryDx=0;entryDy=0;endArrow=none;endFill=0;" edge="1" parent="1" source="FgayyWrYOT7IGE3TPor_-13" target="FgayyWrYOT7IGE3TPor_-20">
          <mxGeometry relative="1" as="geometry" />
        </mxCell>
        <mxCell id="FgayyWrYOT7IGE3TPor_-45" value="Нет" style="edgeLabel;html=1;align=center;verticalAlign=middle;resizable=0;points=[];fontFamily=Times New Roman;fontSize=14;" vertex="1" connectable="0" parent="FgayyWrYOT7IGE3TPor_-30">
          <mxGeometry x="-0.1667" y="2" relative="1" as="geometry">
            <mxPoint x="18" as="offset" />
          </mxGeometry>
        </mxCell>
        <mxCell id="FgayyWrYOT7IGE3TPor_-13" value="Ответ уже &lt;br style=&quot;font-size: 14px;&quot;&gt;выведен" style="rhombus;whiteSpace=wrap;html=1;fontFamily=Times New Roman;fontSize=14;" vertex="1" parent="1">
          <mxGeometry y="320" width="120" height="80" as="geometry" />
        </mxCell>
        <mxCell id="FgayyWrYOT7IGE3TPor_-28" style="edgeStyle=orthogonalEdgeStyle;rounded=0;orthogonalLoop=1;jettySize=auto;html=1;exitX=1;exitY=0.5;exitDx=0;exitDy=0;endArrow=none;endFill=0;fontFamily=Times New Roman;fontSize=14;" edge="1" parent="1" source="FgayyWrYOT7IGE3TPor_-20">
          <mxGeometry relative="1" as="geometry">
            <mxPoint x="159.99999999999977" y="480" as="targetPoint" />
          </mxGeometry>
        </mxCell>
        <mxCell id="FgayyWrYOT7IGE3TPor_-43" value="Да" style="edgeLabel;html=1;align=center;verticalAlign=middle;resizable=0;points=[];fontFamily=Times New Roman;fontSize=14;" vertex="1" connectable="0" parent="FgayyWrYOT7IGE3TPor_-28">
          <mxGeometry x="-0.1106" y="-1" relative="1" as="geometry">
            <mxPoint y="-21" as="offset" />
          </mxGeometry>
        </mxCell>
        <mxCell id="FgayyWrYOT7IGE3TPor_-31" style="edgeStyle=orthogonalEdgeStyle;rounded=0;orthogonalLoop=1;jettySize=auto;html=1;exitX=0.5;exitY=1;exitDx=0;exitDy=0;entryX=0.5;entryY=0;entryDx=0;entryDy=0;endArrow=none;endFill=0;" edge="1" parent="1" source="FgayyWrYOT7IGE3TPor_-20" target="FgayyWrYOT7IGE3TPor_-23">
          <mxGeometry relative="1" as="geometry" />
        </mxCell>
        <mxCell id="FgayyWrYOT7IGE3TPor_-46" value="Нет" style="edgeLabel;html=1;align=center;verticalAlign=middle;resizable=0;points=[];fontFamily=Times New Roman;fontSize=14;" vertex="1" connectable="0" parent="FgayyWrYOT7IGE3TPor_-31">
          <mxGeometry x="-0.1364" y="1" relative="1" as="geometry">
            <mxPoint x="19" as="offset" />
          </mxGeometry>
        </mxCell>
        <mxCell id="FgayyWrYOT7IGE3TPor_-20" value="Поле ввода не пустое и оканчивается 0&amp;nbsp;" style="rhombus;whiteSpace=wrap;html=1;fontFamily=Times New Roman;fontSize=12;labelBackgroundColor=none;spacingLeft=28;spacingRight=27;spacingTop=16;spacingBottom=9;" vertex="1" parent="1">
          <mxGeometry y="440" width="120" height="80" as="geometry" />
        </mxCell>
        <mxCell id="FgayyWrYOT7IGE3TPor_-29" style="edgeStyle=orthogonalEdgeStyle;rounded=0;orthogonalLoop=1;jettySize=auto;html=1;exitX=1;exitY=0.5;exitDx=0;exitDy=0;entryX=0;entryY=0.5;entryDx=0;entryDy=0;endArrow=none;endFill=0;fontFamily=Times New Roman;fontSize=14;" edge="1" parent="1" source="FgayyWrYOT7IGE3TPor_-23">
          <mxGeometry relative="1" as="geometry">
            <mxPoint x="160.0000000000075" y="600" as="targetPoint" />
          </mxGeometry>
        </mxCell>
        <mxCell id="FgayyWrYOT7IGE3TPor_-44" value="Да" style="edgeLabel;html=1;align=center;verticalAlign=middle;resizable=0;points=[];fontFamily=Times New Roman;fontSize=14;" vertex="1" connectable="0" parent="FgayyWrYOT7IGE3TPor_-29">
          <mxGeometry x="-0.0803" relative="1" as="geometry">
            <mxPoint y="-20" as="offset" />
          </mxGeometry>
        </mxCell>
        <mxCell id="FgayyWrYOT7IGE3TPor_-23" value="Поле ввода&lt;br&gt;пустое" style="rhombus;whiteSpace=wrap;html=1;fontFamily=Times New Roman;fontSize=14;labelBackgroundColor=none;" vertex="1" parent="1">
          <mxGeometry y="560" width="120" height="80" as="geometry" />
        </mxCell>
        <mxCell id="FgayyWrYOT7IGE3TPor_-24" value="A" style="ellipse;whiteSpace=wrap;html=1;aspect=fixed;" vertex="1" parent="1">
          <mxGeometry x="160" y="340" width="40" height="40" as="geometry" />
        </mxCell>
        <mxCell id="FgayyWrYOT7IGE3TPor_-47" value="Вывод во вспывающее окно сообщения о том, что необходимо ввести 0" style="rounded=0;whiteSpace=wrap;html=1;fontFamily=Times New Roman;fontSize=13;" vertex="1" parent="1">
          <mxGeometry x="160" y="440" width="120" height="80" as="geometry" />
        </mxCell>
        <mxCell id="FgayyWrYOT7IGE3TPor_-48" value="Вывод во вспывающее окно сообщения о том, что надо ввести последовательность" style="rounded=0;whiteSpace=wrap;html=1;fontFamily=Times New Roman;fontSize=13;" vertex="1" parent="1">
          <mxGeometry x="160" y="560" width="120" height="80" as="geometry" />
        </mxCell>
        <mxCell id="FgayyWrYOT7IGE3TPor_-51" value="" style="endArrow=none;html=1;rounded=0;exitX=1;exitY=0.5;exitDx=0;exitDy=0;" edge="1" parent="1" source="FgayyWrYOT7IGE3TPor_-8">
          <mxGeometry width="50" height="50" relative="1" as="geometry">
            <mxPoint x="280" y="280" as="sourcePoint" />
            <mxPoint x="320" y="240" as="targetPoint" />
          </mxGeometry>
        </mxCell>
        <mxCell id="FgayyWrYOT7IGE3TPor_-52" value="" style="endArrow=none;html=1;rounded=0;" edge="1" parent="1">
          <mxGeometry width="50" height="50" relative="1" as="geometry">
            <mxPoint x="320" y="240" as="sourcePoint" />
            <mxPoint x="320" y="720" as="targetPoint" />
          </mxGeometry>
        </mxCell>
        <mxCell id="FgayyWrYOT7IGE3TPor_-53" value="" style="endArrow=classic;html=1;rounded=0;entryX=1;entryY=0.5;entryDx=0;entryDy=0;entryPerimeter=0;" edge="1" parent="1" target="FgayyWrYOT7IGE3TPor_-11">
          <mxGeometry width="50" height="50" relative="1" as="geometry">
            <mxPoint x="320" y="720" as="sourcePoint" />
            <mxPoint x="260" y="730" as="targetPoint" />
          </mxGeometry>
        </mxCell>
        <mxCell id="FgayyWrYOT7IGE3TPor_-54" value="" style="endArrow=classic;html=1;rounded=0;exitX=1;exitY=0.5;exitDx=0;exitDy=0;" edge="1" parent="1" source="FgayyWrYOT7IGE3TPor_-47">
          <mxGeometry width="50" height="50" relative="1" as="geometry">
            <mxPoint x="310" y="510" as="sourcePoint" />
            <mxPoint x="320" y="480" as="targetPoint" />
          </mxGeometry>
        </mxCell>
        <mxCell id="FgayyWrYOT7IGE3TPor_-56" value="" style="endArrow=classic;html=1;rounded=0;exitX=1;exitY=0.5;exitDx=0;exitDy=0;" edge="1" parent="1">
          <mxGeometry width="50" height="50" relative="1" as="geometry">
            <mxPoint x="280" y="599.44" as="sourcePoint" />
            <mxPoint x="320" y="599.44" as="targetPoint" />
          </mxGeometry>
        </mxCell>
        <mxCell id="FgayyWrYOT7IGE3TPor_-72" style="edgeStyle=orthogonalEdgeStyle;rounded=0;orthogonalLoop=1;jettySize=auto;html=1;exitX=0.5;exitY=1;exitDx=0;exitDy=0;entryX=0.5;entryY=0;entryDx=0;entryDy=0;endArrow=none;endFill=0;" edge="1" parent="1" source="FgayyWrYOT7IGE3TPor_-57" target="FgayyWrYOT7IGE3TPor_-58">
          <mxGeometry relative="1" as="geometry" />
        </mxCell>
        <mxCell id="FgayyWrYOT7IGE3TPor_-57" value="A" style="ellipse;whiteSpace=wrap;html=1;aspect=fixed;" vertex="1" parent="1">
          <mxGeometry x="480" width="40" height="40" as="geometry" />
        </mxCell>
        <mxCell id="FgayyWrYOT7IGE3TPor_-62" style="edgeStyle=orthogonalEdgeStyle;rounded=0;orthogonalLoop=1;jettySize=auto;html=1;exitX=0.5;exitY=1;exitDx=0;exitDy=0;entryX=0.5;entryY=0;entryDx=0;entryDy=0;endArrow=none;endFill=0;" edge="1" parent="1" source="FgayyWrYOT7IGE3TPor_-58" target="FgayyWrYOT7IGE3TPor_-59">
          <mxGeometry relative="1" as="geometry" />
        </mxCell>
        <mxCell id="FgayyWrYOT7IGE3TPor_-58" value="Инициализвация итератора, привоение ему значение - 0" style="rounded=0;whiteSpace=wrap;html=1;" vertex="1" parent="1">
          <mxGeometry x="440" y="80" width="120" height="80" as="geometry" />
        </mxCell>
        <mxCell id="FgayyWrYOT7IGE3TPor_-61" style="edgeStyle=orthogonalEdgeStyle;rounded=0;orthogonalLoop=1;jettySize=auto;html=1;exitX=0.5;exitY=1;exitDx=0;exitDy=0;entryX=0.5;entryY=0;entryDx=0;entryDy=0;endArrow=none;endFill=0;" edge="1" parent="1" source="FgayyWrYOT7IGE3TPor_-59" target="FgayyWrYOT7IGE3TPor_-60">
          <mxGeometry relative="1" as="geometry" />
        </mxCell>
        <mxCell id="FgayyWrYOT7IGE3TPor_-59" value="Вывод результата вычислений в поле &quot;Вывод&quot;" style="shape=parallelogram;perimeter=parallelogramPerimeter;whiteSpace=wrap;html=1;fixedSize=1;spacingLeft=10;spacingRight=10;" vertex="1" parent="1">
          <mxGeometry x="440" y="200" width="120" height="80" as="geometry" />
        </mxCell>
        <mxCell id="FgayyWrYOT7IGE3TPor_-64" style="edgeStyle=orthogonalEdgeStyle;rounded=0;orthogonalLoop=1;jettySize=auto;html=1;exitX=0.5;exitY=1;exitDx=0;exitDy=0;entryX=0.5;entryY=0;entryDx=0;entryDy=0;endArrow=none;endFill=0;" edge="1" parent="1" source="FgayyWrYOT7IGE3TPor_-60" target="FgayyWrYOT7IGE3TPor_-63">
          <mxGeometry relative="1" as="geometry" />
        </mxCell>
        <mxCell id="FgayyWrYOT7IGE3TPor_-60" value="Присвоение итератору значения = 0,&lt;br&gt;double_click_bool = true" style="rounded=0;whiteSpace=wrap;html=1;" vertex="1" parent="1">
          <mxGeometry x="440" y="320" width="120" height="80" as="geometry" />
        </mxCell>
        <mxCell id="FgayyWrYOT7IGE3TPor_-65" style="edgeStyle=orthogonalEdgeStyle;rounded=0;orthogonalLoop=1;jettySize=auto;html=1;exitX=0.5;exitY=1;exitDx=0;exitDy=0;endArrow=none;endFill=0;" edge="1" parent="1" source="FgayyWrYOT7IGE3TPor_-63">
          <mxGeometry relative="1" as="geometry">
            <mxPoint x="499.78947368421063" y="560" as="targetPoint" />
          </mxGeometry>
        </mxCell>
        <mxCell id="FgayyWrYOT7IGE3TPor_-63" value="Вывод количества вызовов рекурсивной функции" style="shape=parallelogram;perimeter=parallelogramPerimeter;whiteSpace=wrap;html=1;fixedSize=1;spacingLeft=10;spacingRight=10;" vertex="1" parent="1">
          <mxGeometry x="440" y="440" width="120" height="80" as="geometry" />
        </mxCell>
        <mxCell id="FgayyWrYOT7IGE3TPor_-67" value="Присвоение счётчику кол-ва функции &lt;br&gt;значения = 0" style="rounded=0;whiteSpace=wrap;html=1;" vertex="1" parent="1">
          <mxGeometry x="440" y="560" width="120" height="80" as="geometry" />
        </mxCell>
        <mxCell id="FgayyWrYOT7IGE3TPor_-69" style="edgeStyle=orthogonalEdgeStyle;rounded=0;orthogonalLoop=1;jettySize=auto;html=1;exitX=0.5;exitY=1;exitDx=0;exitDy=0;entryX=0.5;entryY=0.5;entryDx=0;entryDy=-20;entryPerimeter=0;endArrow=none;endFill=0;" edge="1" parent="1" source="FgayyWrYOT7IGE3TPor_-67">
          <mxGeometry relative="1" as="geometry">
            <mxPoint x="500" y="680" as="targetPoint" />
          </mxGeometry>
        </mxCell>
        <mxCell id="FgayyWrYOT7IGE3TPor_-71" value="Конец" style="html=1;dashed=0;whiteSpace=wrap;shape=mxgraph.dfd.start;fontFamily=Times New Roman;fontSize=14;" vertex="1" parent="1">
          <mxGeometry x="440" y="680" width="120" height="40" as="geometry" />
        </mxCell>
      </root>
    </mxGraphModel>
  </diagram>
</mxfile>
